<svg width="58" height="58" viewBox="0 0 58 58" fill="none" xmlns="http://www.w3.org/2000/svg">
<circle cx="29" cy="29" r="29" fill="white"/>
<g clip-path="url(#clip0_4_61)">
<path d="M37 15.6667C37.3266 15.6667 37.6418 15.7866 37.8858 16.0036C38.1299 16.2206 38.2858 16.5197 38.324 16.844L38.3333 17V22.3333C38.3333 22.6599 38.2134 22.9751 37.9964 23.2192C37.7794 23.4632 37.4803 23.6191 37.156 23.6573L37 23.6667H33V25H37C37.1898 25.0001 37.3774 25.0407 37.5503 25.1191C37.7231 25.1975 37.8772 25.3119 38.0023 25.4546C38.1274 25.5974 38.2206 25.7652 38.2756 25.9469C38.3306 26.1285 38.3462 26.3198 38.3213 26.508L38.2947 26.6573L36.9613 31.9907C36.8952 32.254 36.7502 32.4909 36.5457 32.6696C36.3413 32.8483 36.0872 32.9603 35.8173 32.9907L35.6667 33H33V41C33 41.3266 32.8801 41.6418 32.663 41.8858C32.446 42.1299 32.147 42.2858 31.8227 42.324L31.6667 42.3333H26.3333C26.0068 42.3333 25.6916 42.2134 25.4475 41.9964C25.2035 41.7794 25.0475 41.4803 25.0093 41.156L25 41V33H22.3333C22.0068 32.9999 21.6916 32.88 21.4475 32.663C21.2035 32.446 21.0475 32.147 21.0093 31.8227L21 31.6667V26.3333C21 26.0067 21.1199 25.6915 21.337 25.4475C21.554 25.2034 21.853 25.0475 22.1773 25.0093L22.3333 25H25V23.6667C24.9999 21.5968 25.8021 19.6075 27.238 18.1167C28.6738 16.6259 30.6316 15.7496 32.7 15.672L33 15.6667H37Z" fill="url(#paint0_linear_4_61)"/>
</g>
<defs>
<linearGradient id="paint0_linear_4_61" x1="21" y1="15.6667" x2="44.5537" y2="23.4086" gradientUnits="userSpaceOnUse">
<stop stop-color="#EAC4C4"/>
<stop offset="1" stop-color="#2675ED"/>
</linearGradient>
<clipPath id="clip0_4_61">
<rect width="32" height="32" fill="white" transform="translate(13 13)"/>
</clipPath>
</defs>
</svg>
