<svg width="58" height="58" viewBox="0 0 58 58" fill="none" xmlns="http://www.w3.org/2000/svg">
<circle cx="29" cy="29" r="29" fill="white"/>
<g clip-path="url(#clip0_4_72)">
<path d="M22.315 19.1C23.106 18.987 24.215 19.245 25.648 20.066L25.92 20.227L26.08 20.327L26.477 20.244C27.9908 19.9515 29.5439 19.9244 31.067 20.164L31.523 20.244L31.919 20.327L32.08 20.227C33.465 19.387 34.567 19.057 35.402 19.079L35.566 19.087L35.713 19.104L35.789 19.118L35.839 19.129L35.983 19.176C36.2188 19.2735 36.4084 19.4573 36.513 19.69C36.9222 20.6017 37.06 21.612 36.91 22.6L36.863 22.867L36.817 23.063L36.94 23.226C37.514 24.021 37.87 24.954 37.97 25.933L37.993 26.228L38 26.5C38 30.355 36.341 32.383 33.356 33.18L33.111 33.241L32.979 33.27L32.993 33.431L33.001 33.588L33.005 33.953L33.003 34.166L33 38C33 38.2449 32.91 38.4813 32.7473 38.6644C32.5845 38.8474 32.3602 38.9643 32.117 38.993L32 39H26C25.7551 39 25.5187 38.91 25.3356 38.7473C25.1526 38.5845 25.0356 38.3603 25.007 38.117L25 38V37.266C23.182 37.526 21.97 36.842 20.89 35.388L20.355 34.622C20.075 34.226 19.9 34.043 19.766 33.978L19.718 33.959C19.4704 33.8785 19.2639 33.7047 19.1425 33.4744C19.0211 33.2442 18.9942 32.9756 19.0677 32.7258C19.1411 32.4761 19.3091 32.2648 19.5358 32.1369C19.7626 32.009 20.0303 31.9746 20.282 32.041C20.924 32.229 21.356 32.609 21.852 33.28L22.39 34.049C23.15 35.128 23.75 35.508 24.999 35.24L25 34.562L24.982 34.394C24.9525 34.1204 24.9454 33.8448 24.961 33.57L24.978 33.385L24.997 33.265L24.889 33.241C21.913 32.531 20.186 30.668 20.014 27.102L20.004 26.792L20 26.5C20.0011 25.4166 20.3166 24.3568 20.908 23.449L21.06 23.227L21.182 23.064L21.137 22.868C20.9567 21.9896 21.0067 21.0794 21.282 20.226L21.382 19.944L21.488 19.691C21.5924 19.4585 21.7816 19.2747 22.017 19.177L22.161 19.13L22.315 19.1Z" fill="url(#paint0_linear_4_72)"/>
</g>
<defs>
<linearGradient id="paint0_linear_4_72" x1="19.027" y1="19.0748" x2="42.2174" y2="30.2413" gradientUnits="userSpaceOnUse">
<stop stop-color="#EAC4C4"/>
<stop offset="1" stop-color="#2675ED"/>
</linearGradient>
<clipPath id="clip0_4_72">
<rect width="24" height="24" fill="white" transform="translate(17 17)"/>
</clipPath>
</defs>
</svg>
