<svg width="58" height="58" viewBox="0 0 58 58" fill="none" xmlns="http://www.w3.org/2000/svg">
<circle cx="29" cy="29" r="29" fill="white"/>
<g clip-path="url(#clip0_4_62)">
<path d="M31.058 20.41C29.251 21.177 28.063 22.863 28.002 24.79L28 24.972L27.757 24.949C25.365 24.68 23.259 23.437 21.813 21.418C21.7151 21.2812 21.5842 21.1713 21.4325 21.0984C21.2808 21.0256 21.1132 20.9923 20.9452 21.0014C20.7772 21.0106 20.6142 21.062 20.4714 21.1509C20.3285 21.2398 20.2104 21.3633 20.128 21.51L20.031 21.696L19.982 21.795C19.263 23.28 18.792 25.085 18.965 26.998L18.995 27.271C19.278 29.534 20.495 31.486 22.774 32.95L22.947 33.057L22.866 33.1C21.551 33.763 20.348 34.052 19.039 34C17.983 33.96 17.593 35.372 18.521 35.878C22.119 37.839 25.982 38.444 29.313 37.478C33.373 36.298 36.465 33.255 37.648 29.045L37.775 28.55C38.013 27.557 38.147 26.544 38.176 25.526L38.179 25.194L38.572 24.415L39.012 23.553L39.226 23.119L39.344 22.872C39.609 22.307 39.8 21.839 39.918 21.442L39.932 21.386L39.94 21.368C40.16 20.775 39.774 20.01 38.999 20.01L38.877 20.017C38.798 20.0267 38.7204 20.0459 38.646 20.074L38.56 20.112C38.2746 20.2506 37.9807 20.3708 37.68 20.472L37.324 20.587L37.053 20.667L36.281 20.881C34.945 19.763 33.137 19.627 31.269 20.327L31.058 20.41Z" fill="url(#paint0_linear_4_62)"/>
</g>
<defs>
<linearGradient id="paint0_linear_4_62" x1="17.998" y1="19.8976" x2="41.9924" y2="34.703" gradientUnits="userSpaceOnUse">
<stop stop-color="#EAC4C4"/>
<stop offset="1" stop-color="#2675ED"/>
</linearGradient>
<clipPath id="clip0_4_62">
<rect width="24" height="24" fill="white" transform="translate(17 17)"/>
</clipPath>
</defs>
</svg>
