<svg width="137" height="138" viewBox="0 0 137 138" fill="none" xmlns="http://www.w3.org/2000/svg">
<path d="M68.7124 18.9586L111.789 93.5865L25.6209 93.5778L68.7124 18.9586Z" fill="url(#paint0_linear_47_700)"/>
<path d="M111.969 44.0293L69.0485 118.747L25.8012 44.2181L111.969 44.0293Z" fill="url(#paint1_linear_47_700)"/>
<path d="M62.8 65.48L63.66 65.51L63.83 71.99H62.9L62.85 69.29H60.52V72.06H59.72L59.49 65.48H60.41L60.51 68.45H62.84L62.8 65.48ZM68.3739 69.96L65.4239 69.98C65.4239 70.4067 65.5439 70.75 65.7839 71.01C66.0239 71.2633 66.2939 71.39 66.5939 71.39C66.8939 71.39 67.1506 71.3433 67.3639 71.25C67.5839 71.15 67.7406 71.0533 67.8339 70.96L67.9639 70.81L68.3739 71.35C67.9872 71.8167 67.3872 72.05 66.5739 72.05C65.9206 72.05 65.4239 71.8533 65.0839 71.46C64.7439 71.0667 64.5739 70.5267 64.5739 69.84C64.5739 69.1467 64.7872 68.54 65.2139 68.02C65.6472 67.4933 66.2006 67.23 66.8739 67.23C67.4139 67.23 67.8072 67.4167 68.0539 67.79C68.3072 68.1567 68.4339 68.6367 68.4339 69.23C68.4339 69.4767 68.4139 69.72 68.3739 69.96ZM67.6539 69.39C67.6539 68.91 67.5806 68.5467 67.4339 68.3C67.2939 68.0533 67.0406 67.93 66.6739 67.93C66.3139 67.93 66.0139 68.09 65.7739 68.41C65.5406 68.7233 65.4206 69.0567 65.4139 69.41L67.6539 69.39ZM68.8161 65.53L68.7861 64.79L70.4661 64.71C70.4061 67.29 70.3761 68.8 70.3761 69.24L70.3561 71.99L69.5561 72.05V69.22C69.5561 68.2733 69.5394 67.01 69.5061 65.43L68.8161 65.53ZM71.1696 65.53L71.1396 64.79L72.8196 64.71C72.7596 67.29 72.7296 68.8 72.7296 69.24L72.7096 71.99L71.9096 72.05V69.22C71.9096 68.2733 71.8929 67.01 71.8596 65.43L71.1696 65.53ZM75.9531 67.22C77.1598 67.22 77.7631 67.98 77.7631 69.5C77.7631 70.2533 77.5731 70.87 77.1931 71.35C76.8131 71.83 76.3098 72.07 75.6831 72.07C75.0631 72.07 74.5898 71.8633 74.2631 71.45C73.9431 71.03 73.7831 70.47 73.7831 69.77C73.7831 69.37 73.8598 68.9833 74.0131 68.61C74.1665 68.23 74.4131 67.9033 74.7531 67.63C75.0998 67.3567 75.4998 67.22 75.9531 67.22ZM74.5731 69.62C74.5731 70.0933 74.6731 70.5 74.8731 70.84C75.0731 71.18 75.3531 71.35 75.7131 71.35C76.0798 71.35 76.3698 71.2033 76.5831 70.91C76.8031 70.61 76.9131 70.1867 76.9131 69.64C76.9131 68.4933 76.5698 67.92 75.8831 67.92C75.4565 67.92 75.1298 68.0867 74.9031 68.42C74.6831 68.7467 74.5731 69.1467 74.5731 69.62Z" fill="white"/>
<defs>
<linearGradient id="paint0_linear_47_700" x1="18.9634" y1="18.9536" x2="138.262" y2="79.2954" gradientUnits="userSpaceOnUse">
<stop stop-color="#242E4E"/>
<stop offset="1" stop-color="#151511" stop-opacity="0.74"/>
</linearGradient>
<linearGradient id="paint1_linear_47_700" x1="87" y1="1" x2="94.6976" y2="134.469" gradientUnits="userSpaceOnUse">
<stop stop-color="#242E4E"/>
<stop offset="1" stop-color="#151511" stop-opacity="0.74"/>
</linearGradient>
</defs>
</svg>
